<svg xmlns="http://www.w3.org/2000/svg" xmlns:xlink="http://www.w3.org/1999/xlink" width="124.11444091796875" height="107.14328002929688" viewBox="0 0 124.11444091796875 107.14328002929688" fill="none">
<rect  x="54.867919921875" y="30.793121337890625" width="7" height="45" transform="rotate(-45 54.867919921875 30.793121337890625)" rx="3.5"    fill="#E5E5E5" >
</rect>
<rect  x="44.26129150390625" y="41.399749755859375" width="7" height="30" transform="rotate(-45 44.26129150390625 41.399749755859375)" rx="3.5"    fill="#E5E5E5" >
</rect>
<rect  x="33.65472412109375" y="52.006317138671875" width="7" height="15" transform="rotate(-45 33.65472412109375 52.006317138671875)" rx="3.5"    fill="#E5E5E5" >
</rect>
<path   fill="rgba(229, 229, 229, 1)"  d="M61.18 9.46033L10.2003 62.4792Q9.68661 63.0135 9.38164 63.6682Q9.09031 64.2937 9.02127 64.9588Q8.88303 66.2906 9.63179 67.3725Q12.1591 71.0243 14.7653 74.1635Q18.0894 78.1673 21.2523 80.9812Q23.9871 83.4141 28.364 86.523Q32.0003 89.106 36.5855 92.0242Q41.3705 95.0695 47.0749 96.6277Q52.6231 98.1433 58.6203 98.1433L64.4713 98.1433Q71.0907 98.1433 77.1653 96.3156Q83.3988 94.44 88.5155 90.7948Q97.7256 84.2335 102.847 79.5292Q108.653 74.1967 114.294 67.2601Q114.743 66.7081 114.949 66.0471Q115.15 65.4024 115.106 64.708Q115.062 63.9949 114.767 63.3234Q114.458 62.6199 113.911 62.0514L63.3425 9.46033C62.7524 8.84655 61.7702 8.84655 61.18 9.46033ZM54.6925 3.22236C58.8238 -1.07411 65.6988 -1.07411 69.83 3.22236L120.398 55.8134Q122.054 57.5348 123.006 59.7024Q123.945 61.8379 124.089 64.147Q124.236 66.4971 123.541 68.7255Q122.819 71.0415 121.276 72.9386Q115.222 80.3826 108.935 86.1574Q103.402 91.2395 93.7375 98.1249Q87.4125 102.631 79.7584 104.934Q72.4153 107.143 64.4713 107.143L58.6203 107.143Q51.4159 107.143 44.7033 105.31Q37.6862 103.393 31.7533 99.6169Q20.8832 92.6988 15.2703 87.7054Q11.5992 84.4395 7.84074 79.9124Q4.98279 76.47 2.23123 72.4942Q0.920683 70.6005 0.369903 68.3795Q-0.160245 66.2416 0.0693774 64.0295Q0.294317 61.8626 1.22314 59.8684Q2.16067 57.8555 3.7128 56.2412L54.6925 3.22236Z">
</path>
</svg>
